<svg xmlns="http://www.w3.org/2000/svg" viewBox="0 0 393 249" role="img" aria-labelledby="title desc"><title id="title">Bina Insan Palu High School</title><desc id="desc">Official school logo traced from the supplied asset with transparent background.</desc><path d="M16,8L13,11L11,15L11,18L10,19L10,25L9,26L9,41L11,44L11,48L14,52L15,55L20,60L20,61L22,63L23,63L29,68L32,69L35,72L42,75L43,77L46,78L50,81L50,82L48,83L45,81L43,81L39,79L34,79L33,78L24,78L23,79L21,79L17,81L15,83L15,84L12,87L10,91L10,93L9,94L9,97L8,98L8,113L9,114L9,117L10,118L10,122L11,123L12,128L14,130L14,132L16,134L20,142L29,152L29,153L30,153L31,155L41,165L42,165L47,170L50,171L52,173L54,173L54,171L56,168L57,163L62,153L64,151L66,147L75,138L79,136L78,129L77,128L76,123L74,121L74,116L73,115L73,113L71,109L71,106L70,105L70,97L73,94L75,93L79,93L80,94L85,95L88,97L90,97L92,99L99,102L104,106L106,106L107,108L110,111L111,111L117,118L117,120L119,123L119,129L120,130L120,133L122,133L132,138L134,140L138,142L141,145L142,145L154,157L157,157L159,152L162,149L162,147L166,142L169,136L169,134L170,133L170,131L172,127L172,124L173,123L173,112L172,111L172,107L170,105L170,100L168,98L166,93L161,88L161,87L159,85L156,84L149,78L147,78L143,75L140,75L138,73L138,72L133,70L131,68L128,67L126,65L123,64L121,62L118,61L116,59L113,58L111,56L106,54L101,50L92,46L90,44L87,43L85,41L82,40L80,38L78,37L76,37L73,34L70,33L68,31L65,30L63,28L61,27L59,27L56,24L44,18L41,15L39,15L37,13L25,7L18,7Z" fill="#54C8F6" fill-rule="evenodd"/><path d="M379,189L378,190L378,206L391,206L391,203L384,203L383,202L383,195L382,194L382,189ZM360,190L357,194L357,199L356,200L357,203L359,205L361,206L363,206L364,207L367,207L373,204L375,200L375,198L374,197L374,193L373,193L371,191L371,190L369,189L362,189ZM363,192L368,192L371,197L370,200L366,204L365,204L361,200L360,198L360,195ZM337,191L335,194L335,200L336,201L336,203L339,206L342,206L343,207L345,207L346,206L349,206L353,202L354,197L353,196L353,194L352,192L350,190L348,190L347,189L341,189ZM342,192L346,192L349,195L350,197L349,200L345,204L343,204L339,201L339,195ZM315,189L315,193L316,194L316,202L315,203L315,206L320,206L320,203L319,202L319,200L320,199L325,199L327,201L327,206L331,206L331,189L327,189L327,193L328,194L327,196L320,196L319,195L320,190L319,189ZM301,189L299,191L298,191L296,194L296,200L297,201L297,203L300,206L303,206L304,207L307,207L308,206L310,206L312,204L312,203L311,202L308,202L306,204L304,203L302,203L300,201L300,196L303,192L306,192L310,194L312,192L312,191L308,189ZM281,190L279,193L279,195L280,197L283,199L286,199L287,200L289,200L290,202L288,204L284,204L280,202L279,205L280,206L284,206L285,207L287,207L288,206L291,206L293,204L293,200L291,197L288,197L287,196L285,196L283,194L283,193L284,192L289,192L290,193L292,193L292,190L291,189L283,189ZM253,189L252,190L252,193L253,194L253,196L252,197L252,206L257,206L257,203L256,202L256,200L257,199L264,199L265,200L265,202L264,203L264,206L268,206L269,205L269,200L268,199L268,193L269,192L269,190L268,189L265,189L264,190L264,193L265,194L264,196L257,196L256,195L257,190L256,189ZM233,193L232,195L232,200L234,202L234,204L237,206L241,206L243,207L249,204L248,202L248,198L245,198L245,202L243,204L241,204L237,200L236,198L236,196L238,193L240,193L242,192L245,194L247,194L248,193L248,191L245,189L238,189L235,192ZM225,189L225,194L224,195L224,206L229,206L229,189ZM204,189L204,192L205,193L205,202L204,203L204,206L208,206L208,200L209,199L211,200L215,200L216,201L216,206L220,206L220,189L216,189L216,195L215,196L209,196L208,195L208,189ZM307,143L307,167L309,169L309,171L312,174L316,176L328,176L329,174L331,174L333,173L335,171L336,169L336,167L337,166L337,143L329,143L328,144L328,151L329,152L329,157L328,158L328,165L326,169L318,169L316,166L316,164L315,163L315,143ZM278,143L278,176L302,176L303,174L303,169L288,169L287,168L287,143ZM251,143L248,149L248,151L245,156L245,158L242,163L242,166L240,168L237,174L237,176L241,176L242,175L245,176L247,173L247,170L248,169L262,169L265,175L268,175L269,176L274,176L274,174L272,171L272,169L269,165L269,162L266,156L264,154L264,151L260,143ZM255,152L257,153L257,156L260,161L259,163L252,163L251,162L251,160L253,158L253,155ZM228,144L226,144L225,143L222,143L221,144L217,144L216,143L206,143L206,176L214,176L214,171L215,170L214,167L215,166L219,166L220,167L225,167L226,166L228,166L230,165L234,161L234,159L235,158L235,152L233,150L233,148L230,145ZM214,150L215,149L217,149L218,150L220,150L222,149L224,150L227,154L227,156L226,158L222,161L215,161L214,160ZM78,137L76,139L75,139L67,147L67,148L63,153L58,163L58,165L55,171L55,174L54,176L57,176L68,185L70,186L72,186L76,190L78,190L80,192L85,194L91,199L93,199L95,201L98,202L103,207L105,207L108,210L108,211L109,211L114,216L114,217L117,220L118,223L120,225L121,228L122,228L122,223L123,222L123,219L124,218L124,216L125,215L125,213L126,212L126,210L127,209L128,204L130,202L130,200L132,196L134,194L135,191L137,189L138,186L140,184L143,178L147,173L147,171L149,169L151,164L155,160L155,159L142,146L141,146L138,143L137,143L132,139L122,134L120,134L120,137L119,138L119,146L118,147L117,152L115,154L115,156L109,162L107,163L104,163L103,164L101,164L100,163L97,163L93,161L87,155L82,145L82,143L81,142L80,137ZM328,93L328,126L336,126L336,110L337,109L338,109L340,111L340,112L343,115L343,116L345,117L347,121L352,126L358,126L359,125L359,122L358,121L358,119L359,118L359,111L358,110L358,108L359,107L359,93L356,93L355,94L353,93L351,93L350,94L350,106L351,107L351,110L350,111L348,110L345,104L335,93ZM301,93L299,97L299,99L296,104L296,106L291,115L291,117L289,120L289,122L287,124L287,126L296,126L296,123L299,119L312,119L316,126L324,126L324,124L322,121L322,119L319,115L319,112L316,108L316,106L312,100L312,97L311,96L311,94L310,93ZM306,102L307,103L307,106L309,109L309,112L308,113L305,113L304,114L302,114L301,113L301,111L304,106L304,103ZM266,93L262,95L260,97L258,101L258,105L260,109L261,109L263,111L265,111L269,113L274,113L276,114L278,116L278,117L273,120L269,120L268,119L265,119L262,117L260,117L258,123L261,125L266,125L267,126L278,126L282,124L284,122L286,118L286,114L285,112L281,108L279,108L275,106L271,106L269,105L267,103L267,102L271,99L275,99L276,100L279,100L280,101L282,101L284,95L280,93ZM222,93L222,126L230,126L230,110L231,109L232,109L234,111L235,114L240,119L240,120L244,124L244,125L246,126L252,126L253,125L253,113L252,112L252,107L253,106L253,94L252,93L244,93L244,107L242,108L236,102L236,101L229,93ZM206,93L206,126L214,126L214,93ZM307,43L304,49L304,51L301,56L300,61L298,63L296,67L296,69L293,74L293,76L301,76L302,75L302,72L304,69L317,69L319,71L321,76L330,76L329,74L329,72L321,56L321,54L317,47L317,45L316,43ZM312,52L313,53L313,56L314,57L315,62L311,64L308,64L307,63L307,60L309,57L309,55L310,53ZM258,43L258,75L259,76L267,76L267,62L268,61L270,61L273,64L273,65L278,71L278,72L282,76L289,76L289,43L287,44L283,44L281,43L281,59L280,60L279,60L277,58L275,54L265,43ZM266,59L268,58L269,60L267,61ZM242,43L242,76L251,76L251,43L248,43L247,44ZM206,43L206,76L227,76L228,75L231,75L233,74L236,71L236,69L237,68L236,66L236,63L233,60L231,59L231,58L233,56L234,56L235,54L235,49L234,47L226,43L221,43L220,44L210,44L209,43ZM214,63L215,62L226,62L228,64L228,68L224,70L216,70L214,68ZM214,50L215,49L217,49L218,50L220,49L222,49L226,51L227,53L224,56L215,56L214,55Z" fill="#2E587C" fill-rule="evenodd"/><path d="M172,182L171,181L171,179L170,177L162,168L162,167L159,164L159,163L157,161L155,161L152,164L150,169L148,171L148,173L146,175L143,181L139,186L138,189L136,191L135,194L133,196L131,200L131,202L129,204L129,206L128,207L128,209L127,210L127,212L126,213L126,215L124,219L124,222L123,223L123,228L122,229L120,228L119,225L117,223L116,220L113,217L113,216L109,212L108,212L105,208L103,208L98,203L95,202L93,200L91,200L85,195L80,193L78,191L76,191L72,187L70,187L68,186L57,177L54,177L53,178L53,180L52,181L52,183L50,187L50,190L49,191L49,193L48,194L48,196L46,200L46,204L45,205L45,212L46,213L46,215L47,217L51,221L53,222L55,222L56,223L58,223L61,225L65,225L66,226L71,226L72,227L76,227L77,228L82,228L83,229L86,229L87,230L91,230L92,231L97,231L98,232L102,232L103,233L107,233L108,234L112,234L113,235L118,235L119,236L122,236L126,234L133,228L137,226L146,218L147,218L150,215L154,213L155,211L158,210L168,201L173,191L173,186L172,185Z" fill="#D1A922" fill-rule="evenodd"/></svg>